HIERARCHY
ROOT newVegas:Hips
{
	OFFSET 0.000000 96.479958 0.000000
	CHANNELS 6 Xposition Yposition Zposition Xrotation Yrotation Zrotation
	JOINT newVegas:Pelvis
	{
		OFFSET 0.000000 0.000000 0.000000
		CHANNELS 3 Xrotation Yrotation Zrotation
		JOINT newVegas:LeftUpLeg
		{
			OFFSET 18.735201 -5.666702 -4.541200
			CHANNELS 3 Xrotation Yrotation Zrotation
			JOINT newVegas:LeftLeg
			{
				OFFSET -0.021200 -31.938179 0.493100
				CHANNELS 3 Xrotation Yrotation Zrotation
				JOINT newVegas:LeftFoot
				{
					OFFSET 0.021200 -31.938179 -4.336299
					CHANNELS 3 Xrotation Yrotation Zrotation
					JOINT newVegas:LeftToeBase
					{
						OFFSET 0.943001 -26.722000 15.023500
						CHANNELS 3 Xrotation Yrotation Zrotation
						End Site
						{
							OFFSET 0.000000 30.670183 0.000000
						}
					}
				}
				JOINT newVegas:Left_PantLeg
				{
					OFFSET 0.663870 -9.044666 -1.108900
					CHANNELS 3 Xrotation Yrotation Zrotation
					End Site
					{
						OFFSET 1.415995 20.635357 0.000000
					}
				}
			}
		}
		JOINT newVegas:RightUpLeg
		{
			OFFSET -18.735201 -5.666702 -4.541200
			CHANNELS 3 Xrotation Yrotation Zrotation
			JOINT newVegas:RightLeg
			{
				OFFSET 0.018946 -31.938133 0.493100
				CHANNELS 3 Xrotation Yrotation Zrotation
				JOINT newVegas:RightFoot
				{
					OFFSET -0.018946 -31.938126 -4.336299
					CHANNELS 3 Xrotation Yrotation Zrotation
					JOINT newVegas:RightToeBase
					{
						OFFSET -0.943001 -26.722004 15.023500
						CHANNELS 3 Xrotation Yrotation Zrotation
						End Site
						{
							OFFSET 0.000000 30.670187 0.000000
						}
					}
				}
				JOINT newVegas:Right_PantLeg
				{
					OFFSET -0.661674 -9.044716 -1.108900
					CHANNELS 3 Xrotation Yrotation Zrotation
					End Site
					{
						OFFSET -1.415958 20.635269 0.000000
					}
				}
			}
		}
	}
	JOINT newVegas:Spine
	{
		OFFSET 0.000000 10.199997 -0.299500
		CHANNELS 3 Xrotation Yrotation Zrotation
		JOINT newVegas:Spine1
		{
			OFFSET 0.000000 11.900002 -1.516600
			CHANNELS 3 Xrotation Yrotation Zrotation
			JOINT newVegas:Spine2
			{
				OFFSET 0.000000 13.600006 -2.842500
				CHANNELS 3 Xrotation Yrotation Zrotation
				JOINT newVegas:Neck
				{
					OFFSET 0.000000 9.624100 -2.890100
					CHANNELS 3 Xrotation Yrotation Zrotation
					JOINT newVegas:Head
					{
						OFFSET 0.000000 14.068802 -1.351900
						CHANNELS 3 Xrotation Yrotation Zrotation
						JOINT newVegas:Hair_Back
						{
							OFFSET 0.000000 3.231903 -17.524799
							CHANNELS 3 Xrotation Yrotation Zrotation
							End Site
							{
								OFFSET 0.000000 19.849884 0.000000
							}
						}
						JOINT newVegas:Hair_Front
						{
							OFFSET 0.000000 31.260406 4.573800
							CHANNELS 3 Xrotation Yrotation Zrotation
							JOINT newVegas:Hair_Front1
							{
								OFFSET 0.000000 2.284103 11.993300
								CHANNELS 3 Xrotation Yrotation Zrotation
								JOINT newVegas:Hair_Front2
								{
									OFFSET 0.000000 2.284103 11.993300
									CHANNELS 3 Xrotation Yrotation Zrotation
									End Site
									{
										OFFSET 0.000000 12.208862 0.000000
									}
								}
							}
						}
						JOINT newVegas:Jowel
						{
							OFFSET 0.000000 -7.458206 6.864100
							CHANNELS 3 Xrotation Yrotation Zrotation
							End Site
							{
								OFFSET 0.000000 19.849884 0.000000
							}
						}
					}
				}
				JOINT newVegas:LeftShoulder
				{
					OFFSET 15.263000 10.923401 -0.547700
					CHANNELS 3 Xrotation Yrotation Zrotation
					JOINT newVegas:LeftArm
					{
						OFFSET 25.438599 -2.830597 -13.032500
						CHANNELS 3 Xrotation Yrotation Zrotation
						JOINT newVegas:LeftForeArm
						{
							OFFSET 29.960503 0.000000 0.000000
							CHANNELS 3 Xrotation Yrotation Zrotation
							JOINT newVegas:LeftHand
							{
								OFFSET 27.849251 0.000000 0.000000
								CHANNELS 3 Xrotation Yrotation Zrotation
								JOINT newVegas:LeftHandThumb1
								{
									OFFSET 4.487587 -3.305161 6.305391
									CHANNELS 3 Xrotation Yrotation Zrotation
									JOINT newVegas:LeftHandThumb2
									{
										OFFSET 5.480453 -3.164139 3.164143
										CHANNELS 3 Xrotation Yrotation Zrotation
										JOINT newVegas:LeftHandThumb3
										{
											OFFSET 5.159721 -2.978973 2.978967
											CHANNELS 3 Xrotation Yrotation Zrotation
											End Site
											{
												OFFSET 2.494507 5.926697 1.738678
											}
										}
									}
								}
								JOINT newVegas:LeftHandIndex1
								{
									OFFSET 18.578728 -0.527832 5.208049
									CHANNELS 3 Xrotation Yrotation Zrotation
									JOINT newVegas:LeftHandIndex2
									{
										OFFSET 3.192009 0.000000 0.000000
										CHANNELS 3 Xrotation Yrotation Zrotation
										JOINT newVegas:LeftHandIndex3
										{
											OFFSET 3.835129 0.000000 0.000000
											CHANNELS 3 Xrotation Yrotation Zrotation
											End Site
											{
												OFFSET -0.034599 3.816971 0.371180
											}
										}
									}
								}
								JOINT newVegas:LeftHandMiddle1
								{
									OFFSET 18.476105 0.000000 0.000000
									CHANNELS 3 Xrotation Yrotation Zrotation
									JOINT newVegas:LeftHandMiddle2
									{
										OFFSET 3.324875 0.000000 0.000000
										CHANNELS 3 Xrotation Yrotation Zrotation
										JOINT newVegas:LeftHandMiddle3
										{
											OFFSET 4.596550 0.000000 0.000000
											CHANNELS 3 Xrotation Yrotation Zrotation
											End Site
											{
												OFFSET 0.057701 4.578827 0.399218
											}
										}
									}
								}
								JOINT newVegas:LeftHandRing1
								{
									OFFSET 17.732719 0.121887 -4.201567
									CHANNELS 3 Xrotation Yrotation Zrotation
									JOINT newVegas:LeftHandRing2
									{
										OFFSET 2.733170 0.000000 0.000000
										CHANNELS 3 Xrotation Yrotation Zrotation
										JOINT newVegas:LeftHandRing3
										{
											OFFSET 3.178268 0.000000 0.000000
											CHANNELS 3 Xrotation Yrotation Zrotation
											End Site
											{
												OFFSET 0.119102 3.170624 0.185394
											}
										}
									}
								}
								JOINT newVegas:LeftHandPinky1
								{
									OFFSET 15.989624 -0.606689 -7.535461
									CHANNELS 3 Xrotation Yrotation Zrotation
									JOINT newVegas:LeftHandPinky2
									{
										OFFSET 2.538986 0.000000 0.000000
										CHANNELS 3 Xrotation Yrotation Zrotation
										JOINT newVegas:LeftHandPinky3
										{
											OFFSET 2.593102 0.000000 0.000000
											CHANNELS 3 Xrotation Yrotation Zrotation
											End Site
											{
												OFFSET -0.150902 2.584198 0.152708
											}
										}
									}
								}
							}
							JOINT newVegas:Left_Sleeve
							{
								OFFSET 0.267448 -0.649796 0.577675
								CHANNELS 3 Xrotation Yrotation Zrotation
								End Site
								{
									OFFSET 0.000000 15.991241 0.000000
								}
							}
							JOINT newVegas:Left_CapeC
							{
								OFFSET 15.715958 -8.608795 -6.935905
								CHANNELS 3 Xrotation Yrotation Zrotation
								JOINT newVegas:Left_CapeC1
								{
									OFFSET 0.000000 -8.688499 0.000000
									CHANNELS 3 Xrotation Yrotation Zrotation
									End Site
									{
										OFFSET 0.000000 8.688499 0.000000
									}
								}
							}
						}
						JOINT newVegas:Left_CapeB
						{
							OFFSET 26.118385 -8.608795 -7.079235
							CHANNELS 3 Xrotation Yrotation Zrotation
							JOINT newVegas:Left_CapeB1
							{
								OFFSET 0.000000 -8.688499 0.000000
								CHANNELS 3 Xrotation Yrotation Zrotation
								End Site
								{
									OFFSET 0.000000 8.688499 0.000000
								}
							}
						}
						JOINT newVegas:Left_CapeA
						{
							OFFSET 5.115639 -8.608795 -10.395809
							CHANNELS 3 Xrotation Yrotation Zrotation
							JOINT newVegas:Left_CapeA1
							{
								OFFSET 0.000000 -8.688499 0.000000
								CHANNELS 3 Xrotation Yrotation Zrotation
								End Site
								{
									OFFSET 0.000000 8.688499 0.000000
								}
							}
						}
					}
				}
				JOINT newVegas:RightShoulder
				{
					OFFSET -15.263000 10.923401 -0.547700
					CHANNELS 3 Xrotation Yrotation Zrotation
					JOINT newVegas:RightArm
					{
						OFFSET -25.438599 -2.830597 -13.032500
						CHANNELS 3 Xrotation Yrotation Zrotation
						JOINT newVegas:RightForeArm
						{
							OFFSET -29.960503 0.000000 0.000000
							CHANNELS 3 Xrotation Yrotation Zrotation
							JOINT newVegas:RightHand
							{
								OFFSET -27.849251 0.000000 0.000000
								CHANNELS 3 Xrotation Yrotation Zrotation
								JOINT newVegas:RightHandThumb1
								{
									OFFSET -4.487587 -3.305161 6.305391
									CHANNELS 3 Xrotation Yrotation Zrotation
									JOINT newVegas:RightHandThumb2
									{
										OFFSET -5.480453 -3.164139 3.164143
										CHANNELS 3 Xrotation Yrotation Zrotation
										JOINT newVegas:RightHandThumb3
										{
											OFFSET -5.159721 -2.978973 2.978967
											CHANNELS 3 Xrotation Yrotation Zrotation
											End Site
											{
												OFFSET -2.494507 5.926697 1.738678
											}
										}
									}
								}
								JOINT newVegas:RightHandIndex1
								{
									OFFSET -18.578728 -0.527832 5.208049
									CHANNELS 3 Xrotation Yrotation Zrotation
									JOINT newVegas:RightHandIndex2
									{
										OFFSET -3.192009 0.000000 0.000000
										CHANNELS 3 Xrotation Yrotation Zrotation
										JOINT newVegas:RightHandIndex3
										{
											OFFSET -3.835129 0.000000 0.000000
											CHANNELS 3 Xrotation Yrotation Zrotation
											End Site
											{
												OFFSET 0.034599 3.816971 0.371180
											}
										}
									}
								}
								JOINT newVegas:RightHandMiddle1
								{
									OFFSET -18.476105 0.000000 0.000000
									CHANNELS 3 Xrotation Yrotation Zrotation
									JOINT newVegas:RightHandMiddle2
									{
										OFFSET -3.324875 0.000000 0.000000
										CHANNELS 3 Xrotation Yrotation Zrotation
										JOINT newVegas:RightHandMiddle3
										{
											OFFSET -4.596550 0.000000 0.000000
											CHANNELS 3 Xrotation Yrotation Zrotation
											End Site
											{
												OFFSET -0.057701 4.578827 0.399218
											}
										}
									}
								}
								JOINT newVegas:RightHandRing1
								{
									OFFSET -17.732719 0.121887 -4.201567
									CHANNELS 3 Xrotation Yrotation Zrotation
									JOINT newVegas:RightHandRing2
									{
										OFFSET -2.733170 0.000000 0.000000
										CHANNELS 3 Xrotation Yrotation Zrotation
										JOINT newVegas:RightHandRing3
										{
											OFFSET -3.178268 0.000000 0.000000
											CHANNELS 3 Xrotation Yrotation Zrotation
											End Site
											{
												OFFSET -0.119102 3.170624 0.185394
											}
										}
									}
								}
								JOINT newVegas:RightHandPinky1
								{
									OFFSET -15.989624 -0.606689 -7.535461
									CHANNELS 3 Xrotation Yrotation Zrotation
									JOINT newVegas:RightHandPinky2
									{
										OFFSET -2.538986 0.000000 0.000000
										CHANNELS 3 Xrotation Yrotation Zrotation
										JOINT newVegas:RightHandPinky3
										{
											OFFSET -2.593102 0.000000 0.000000
											CHANNELS 3 Xrotation Yrotation Zrotation
											End Site
											{
												OFFSET 0.150902 2.584198 0.152708
											}
										}
									}
								}
							}
							JOINT newVegas:Right_CapeC
							{
								OFFSET -15.715958 -8.608795 -6.935905
								CHANNELS 3 Xrotation Yrotation Zrotation
								JOINT newVegas:Right_CapeC1
								{
									OFFSET 0.000000 -8.688499 0.000000
									CHANNELS 3 Xrotation Yrotation Zrotation
									End Site
									{
										OFFSET 0.000000 8.688499 0.000000
									}
								}
							}
							JOINT newVegas:Right_Sleeve
							{
								OFFSET -0.267448 -0.649994 0.577675
								CHANNELS 3 Xrotation Yrotation Zrotation
								End Site
								{
									OFFSET 0.000000 15.991302 0.000000
								}
							}
						}
						JOINT newVegas:Right_CapeA
						{
							OFFSET -5.115540 -8.608795 -10.395824
							CHANNELS 3 Xrotation Yrotation Zrotation
							JOINT newVegas:Right_CapeA1
							{
								OFFSET 0.000000 -8.688499 0.000000
								CHANNELS 3 Xrotation Yrotation Zrotation
								End Site
								{
									OFFSET 0.000000 8.688499 0.000000
								}
							}
						}
						JOINT newVegas:Right_CapeB
						{
							OFFSET -26.118187 -8.608795 -7.079266
							CHANNELS 3 Xrotation Yrotation Zrotation
							JOINT newVegas:Right_CapeB1
							{
								OFFSET 0.000000 -8.688499 0.000000
								CHANNELS 3 Xrotation Yrotation Zrotation
								End Site
								{
									OFFSET 0.000000 8.688499 0.000000
								}
							}
						}
					}
				}
				JOINT newVegas:Left_Collar
				{
					OFFSET 18.625099 8.655502 8.828100
					CHANNELS 3 Xrotation Yrotation Zrotation
					JOINT newVegas:Left_Collar1
					{
						OFFSET 14.783401 10.540405 -1.259500
						CHANNELS 3 Xrotation Yrotation Zrotation
						End Site
						{
							OFFSET 0.000000 18.199875 0.000000
						}
					}
				}
				JOINT newVegas:Collar_Back
				{
					OFFSET 0.000000 15.630707 -20.132601
					CHANNELS 3 Xrotation Yrotation Zrotation
					End Site
					{
						OFFSET 0.000000 22.523010 0.000000
					}
				}
				JOINT newVegas:Left_Peck
				{
					OFFSET 17.239599 -5.132599 25.482599
					CHANNELS 3 Xrotation Yrotation Zrotation
					End Site
					{
						OFFSET 0.000000 22.523010 0.000000
					}
				}
				JOINT newVegas:Right_Peck
				{
					OFFSET -17.239599 -5.132202 25.482599
					CHANNELS 3 Xrotation Yrotation Zrotation
					End Site
					{
						OFFSET 0.000000 22.523010 0.000000
					}
				}
				JOINT newVegas:Right_Collar
				{
					OFFSET -18.625099 8.655792 8.828100
					CHANNELS 3 Xrotation Yrotation Zrotation
					JOINT newVegas:Right_Collar1
					{
						OFFSET -14.783401 10.539993 -1.259500
						CHANNELS 3 Xrotation Yrotation Zrotation
						End Site
						{
							OFFSET 0.000000 18.199631 0.000000
						}
					}
				}
			}
		}
		JOINT newVegas:Belly
		{
			OFFSET 0.000000 -6.540398 9.014299
			CHANNELS 3 Xrotation Yrotation Zrotation
			End Site
			{
				OFFSET 0.000000 11.566666 0.000000
			}
		}
	}
	JOINT newVegas:ElvisFacialAnim_Joint
	{
		OFFSET 1.000000 -95.330101 -8.825800
		CHANNELS 3 Xrotation Yrotation Zrotation
		End Site
		{
			OFFSET 0.000000 35.315800 0.000000
		}
	}
}
MOTION
Frames: 4
Frame Time: 0.033333
-5.377501 84.608948 0.930327 -72.497854 -98.395159 -74.888947 0.000000 0.000000 -0.000000 -44.297759 3.247475 32.335420 46.137542 -10.078408 1.331893 -8.743812 2.624853 -19.638648 0.000000 0.000000 -0.000000 -0.000000 0.000001 0.000002 -45.540700 -1.728261 -14.828730 54.893510 -4.698217 0.307540 -13.763374 -2.697585 13.758696 0.000000 -0.000000 0.000000 -0.000001 0.000001 0.000000 5.099889 -2.896333 -0.884906 4.847009 -2.724705 -1.011895 4.872830 -2.670303 -1.025823 2.336422 4.557526 -0.841478 2.336442 4.557507 -0.841471 -0.000001 -0.000000 -0.000000 2.336359 4.557517 -0.841469 2.336524 4.557550 -0.841488 -0.000000 -0.000000 -0.000000 -0.000001 -0.000000 -0.000000 2.334443 -16.473644 5.405039 -58.657596 -59.148339 -60.618981 0.001482 -91.815801 0.001401 -1.362815 2.416342 38.308373 2.333953 -4.852044 -3.963482 13.533758 36.265917 -6.789662 0.000002 -0.000002 -0.000008 2.878026 7.353409 -58.659666 6.385710 5.826654 -95.251858 0.000000 -0.000002 0.000000 2.878026 7.353387 -58.659659 6.420561 5.823351 -95.595218 0.000001 0.000001 0.000000 3.051693 7.454223 -60.629718 5.249911 5.820186 -84.092811 0.000001 0.000001 0.000000 2.878039 7.353423 -58.659659 3.100867 5.166391 -61.922229 0.000001 -0.000007 -0.000004 -0.000000 0.000000 -0.000001 -0.000000 0.000000 -0.000001 -0.000001 0.000000 -0.000001 0.000001 0.000003 -0.000000 0.000000 0.000003 -0.000003 0.000001 0.000003 -0.000000 -0.000001 0.000003 -0.000001 2.128876 10.933914 -13.435715 -29.167797 -8.101120 18.902841 0.000001 129.787746 0.000001 -48.886669 35.994356 -4.322215 2.454501 6.926606 5.617177 7.810713 -26.809507 -3.040611 0.000002 -0.000004 -0.000001 2.770853 -6.512097 65.405366 4.589357 -4.656683 89.164711 -0.000001 -0.000004 -0.000001 2.634495 -6.539944 74.809231 5.688687 -4.541721 102.810296 -0.000001 -0.000001 -0.000006 3.122511 -6.655036 70.080924 5.298704 -4.612851 97.926300 0.000002 0.000002 0.000002 4.911946 -9.704428 53.806212 4.184451 -4.633151 84.167998 0.000000 -0.000000 -0.000001 -0.000000 0.000003 -0.000000 -0.000000 0.000000 -0.000000 -0.000000 0.000002 -0.000001 -0.000000 0.000002 0.000000 -0.000000 0.000002 -0.000000 -0.000000 0.000002 0.000000 -0.000000 0.000002 -0.000000 -0.000001 0.000001 -0.000000 -0.000001 0.000001 -0.000000 -0.000001 0.000001 -0.000000 -0.000001 0.000001 -0.000000 -0.000001 0.000001 -0.000000 -0.000001 0.000001 -0.000000 -0.000001 0.000001 -0.000000 0.000001 0.000000 0.000000 0.000000 0.000000 -0.000000 
-5.320734 84.385284 -0.093934 -74.847071 -98.250297 -76.865726 -0.000001 0.000000 0.000000 -43.765984 3.078893 32.533868 44.714930 -10.100298 1.408199 -7.708657 2.540316 -20.648150 -0.000000 -0.000000 -0.000000 -0.000001 0.000000 0.000001 -46.303253 0.262447 -15.093748 56.707007 -5.539227 -1.665263 -14.248137 -2.898862 14.766403 0.000000 0.000001 0.000000 0.000002 -0.000002 0.000000 5.241626 -2.778479 -0.867194 5.014680 -2.630693 -1.039306 5.039997 -2.568404 -1.055185 2.501616 4.552914 -0.978059 2.501634 4.552917 -0.978068 -0.000002 0.000000 0.000000 2.501609 4.552914 -0.978063 2.501691 4.552888 -0.978062 -0.000001 -0.000000 -0.000001 -0.000002 0.000000 0.000000 2.239583 -16.348157 4.775517 -55.900051 -59.073084 -59.159752 0.001346 -91.536337 0.001306 -0.192622 1.250166 37.719750 2.333983 -4.852048 -3.963499 13.533723 36.265900 -6.789634 0.000003 -0.000006 -0.000007 2.878038 7.353401 -58.659659 6.385707 5.826677 -95.251865 0.000000 0.000001 0.000000 2.878044 7.353388 -58.659652 6.420553 5.823349 -95.595239 0.000000 -0.000001 0.000000 3.051711 7.454248 -60.629711 5.249927 5.820173 -84.092825 0.000000 0.000005 0.000000 2.878051 7.353411 -58.659652 3.100875 5.166390 -61.922222 -0.000000 0.000000 -0.000001 -0.000004 0.000000 0.000000 -0.000004 0.000000 0.000000 -0.000005 0.000000 0.000000 -0.000001 -0.000001 0.000002 -0.000002 -0.000001 0.000000 -0.000001 -0.000001 0.000002 -0.000001 -0.000002 0.000001 2.192991 11.444433 -13.137443 -26.372609 -6.921790 19.204025 -0.000000 129.371897 -0.000000 -45.696592 38.011594 -6.552008 2.454502 6.926616 5.617173 7.810706 -26.809505 -3.040614 0.000001 0.000001 0.000001 2.770835 -6.512085 65.405372 4.589368 -4.656665 89.164718 -0.000001 0.000001 -0.000001 2.634490 -6.539939 74.809238 5.688690 -4.541727 102.810268 -0.000001 -0.000001 -0.000004 3.122509 -6.655024 70.080917 5.298710 -4.612865 97.926328 -0.000001 0.000001 0.000003 4.911933 -9.704404 53.806219 4.184449 -4.633134 84.168025 -0.000001 0.000002 -0.000001 -0.000001 0.000006 0.000001 -0.000000 0.000000 0.000001 -0.000000 0.000006 0.000001 -0.000000 0.000001 0.000000 -0.000000 0.000001 0.000000 -0.000000 0.000001 0.000000 -0.000000 0.000001 0.000000 0.000001 -0.000000 0.000000 0.000001 -0.000000 0.000000 0.000001 -0.000000 0.000000 0.000001 -0.000000 0.000000 0.000001 -0.000000 0.000000 0.000001 -0.000000 0.000000 0.000001 -0.000000 0.000000 -0.000000 0.000000 0.000000 -0.000001 0.000000 0.000000 
-5.264050 84.125145 -1.396555 -78.110426 -98.133105 -79.696553 -0.000001 -0.000000 0.000000 -43.012816 2.866875 32.767146 42.668673 -10.050663 1.545165 -6.327214 2.387271 -22.033919 0.000000 0.000001 -0.000000 -0.000000 0.000000 0.000003 -46.184793 2.075619 -15.658861 57.451836 -6.566035 -3.538322 -15.026874 -3.397157 16.851591 0.000000 0.000001 0.000000 -0.000000 0.000001 0.000001 5.374511 -2.698391 -0.793971 5.177505 -2.596607 -1.088988 5.203621 -2.522546 -1.109108 2.643752 4.560780 -1.147732 2.643754 4.560781 -1.147727 -0.000000 0.000000 0.000000 2.643830 4.560784 -1.147738 2.643615 4.560758 -1.147712 -0.000001 0.000001 -0.000001 -0.000000 0.000000 0.000000 2.158345 -16.404677 3.992738 -53.292766 -58.942395 -57.870779 -0.000587 -91.005283 -0.001022 1.010276 0.182490 36.772133 2.333984 -4.852049 -3.963488 13.533753 36.265921 -6.789656 0.000001 -0.000002 -0.000008 2.878041 7.353403 -58.659679 6.385712 5.826679 -95.251872 0.000000 -0.000001 0.000000 2.878043 7.353379 -58.659679 6.420537 5.823358 -95.595225 -0.000000 0.000003 0.000000 3.051716 7.454227 -60.629718 5.249917 5.820198 -84.092825 0.000000 0.000003 0.000000 2.878055 7.353419 -58.659666 3.100866 5.166394 -61.922235 -0.000001 -0.000005 0.000002 -0.000003 -0.000003 0.000004 -0.000003 -0.000003 0.000004 -0.000003 -0.000002 0.000004 0.000001 0.000001 0.000002 0.000001 0.000001 0.000000 0.000001 0.000001 0.000002 0.000002 -0.000000 0.000001 2.259077 11.987919 -12.809982 -23.488119 -5.824171 19.386725 0.000000 128.696501 0.000001 -42.664855 40.251650 -8.872520 2.454486 6.926629 5.617167 7.810727 -26.809510 -3.040611 0.000001 0.000000 -0.000002 2.770861 -6.512086 65.405372 4.589362 -4.656645 89.164718 -0.000001 -0.000002 0.000001 2.634481 -6.539933 74.809231 5.688686 -4.541725 102.810268 0.000002 -0.000000 -0.000001 3.122531 -6.655027 70.080917 5.298704 -4.612840 97.926328 -0.000002 -0.000001 0.000001 4.911947 -9.704421 53.806219 4.184447 -4.633150 84.168018 0.000000 0.000003 0.000000 0.000000 0.000003 -0.000000 0.000000 -0.000001 -0.000000 0.000000 0.000002 -0.000000 -0.000000 0.000000 -0.000000 -0.000000 0.000000 -0.000000 -0.000000 0.000000 -0.000000 -0.000000 -0.000000 -0.000000 0.000001 0.000001 -0.000000 0.000001 0.000001 -0.000000 0.000001 0.000001 -0.000000 0.000001 0.000001 -0.000000 0.000001 0.000001 -0.000000 0.000001 0.000001 -0.000000 0.000001 0.000001 -0.000000 -0.000000 0.000000 0.000000 -0.000001 -0.000000 0.000000 
-5.202921 83.878036 -2.973441 -80.988893 -98.116385 -82.118859 -0.000000 -0.000000 -0.000000 -41.836131 2.722744 33.066472 39.762667 -9.728539 1.814124 -4.569578 2.150141 -23.876717 -0.000000 0.000001 -0.000000 -0.000000 0.000002 0.000004 -45.860424 3.463584 -16.329408 57.672485 -6.893703 -4.935476 -15.992075 -4.087346 19.458721 -0.000000 -0.000002 0.000000 0.000003 -0.000002 -0.000003 5.485171 -2.587417 -0.632957 5.318546 -2.560867 -1.143608 5.345763 -2.471552 -1.168746 2.772430 4.575290 -1.346725 2.772431 4.575285 -1.346722 -0.000000 0.000000 0.000000 2.772426 4.575282 -1.346723 2.772508 4.575290 -1.346729 -0.000000 0.000001 0.000000 -0.000000 0.000000 -0.000000 2.079763 -16.659158 2.987146 -50.765671 -58.780266 -56.627804 0.003444 -90.564695 0.003443 1.814583 -0.975891 35.925159 2.333994 -4.852034 -3.963489 13.533738 36.265917 -6.789642 0.000001 0.000000 -0.000004 2.878027 7.353410 -58.659659 6.385712 5.826673 -95.251858 0.000000 0.000004 0.000000 2.878028 7.353388 -58.659645 6.420546 5.823369 -95.595239 0.000000 -0.000000 0.000000 3.051694 7.454235 -60.629704 5.249931 5.820194 -84.092831 0.000000 0.000005 0.000001 2.878035 7.353409 -58.659666 3.100858 5.166409 -61.922229 0.000002 -0.000002 -0.000001 -0.000000 0.000000 0.000002 -0.000000 0.000000 0.000002 -0.000001 0.000000 0.000002 -0.000002 -0.000001 -0.000000 -0.000002 -0.000001 -0.000001 -0.000002 -0.000001 -0.000000 -0.000002 -0.000002 -0.000001 2.324967 12.509563 -12.545802 -21.042264 -5.040267 19.263835 0.000001 128.329037 -0.000000 -40.048070 41.467424 -11.166448 2.454497 6.926623 5.617169 7.810706 -26.809500 -3.040626 0.000002 -0.000002 -0.000001 2.770842 -6.512090 65.405400 4.589355 -4.656678 89.164705 -0.000000 0.000002 -0.000001 2.634494 -6.539952 74.809231 5.688696 -4.541713 102.810289 0.000000 0.000000 0.000002 3.122513 -6.655046 70.080931 5.298735 -4.612860 97.926314 -0.000003 -0.000004 -0.000002 4.911951 -9.704421 53.806219 4.184431 -4.633138 84.168018 -0.000000 0.000003 0.000000 -0.000001 0.000004 -0.000000 -0.000001 0.000000 0.000000 -0.000001 0.000004 0.000000 -0.000000 0.000000 0.000000 -0.000000 0.000000 0.000000 -0.000000 0.000000 0.000000 -0.000000 -0.000000 -0.000000 -0.000001 -0.000001 -0.000000 -0.000001 -0.000001 -0.000000 -0.000001 -0.000001 -0.000000 -0.000001 -0.000001 -0.000000 -0.000001 -0.000001 -0.000000 -0.000001 -0.000001 -0.000000 -0.000001 -0.000001 -0.000000 0.000001 -0.000000 0.000000 -0.000000 -0.000000 -0.000000 
